<?xml version="1.0" encoding="UTF-8"?>
<!-- Generator: Adobe Illustrator 27.8.1, SVG Export Plug-In . SVG Version: 6.00 Build 0)  -->
<svg version="1.1" id="Layer_1" xmlns="http://www.w3.org/2000/svg" xmlns:xlink="http://www.w3.org/1999/xlink" x="0px" y="0px" viewBox="0 0 825.6 261.8" style="enable-background:new 0 0 825.6 261.8;" xml:space="preserve">
<style type="text/css">
	.st0{fill:#3F4372;}
	.st1{fill:#ED693A;}
	.st2{fill:#64C9D7;}
	.st3{enable-background:new    ;}
</style>
<g id="ECFMG_Text_00000101095826150877931620000016184844879155438992_">
	<path class="st0" d="M369.6,158.6c0,1.3-0.3,2.8-0.8,4.9c-2.5,9.7-2,19.5-7.2,23.1c-1.4,0.9-3,1.3-5.2,1.3   c-4.5,0-12.1-1.3-27.9-1.3h-43.2c-3.1,0-5.5-0.9-5.5-3.5c0-2,1.9-3.1,3.5-4.1c3-1.7,4.2-3.1,5.3-5.7c0.9-2.2,1.9-5.3,1.9-16.2V96.5   c0-7.2,0-11.1-4.6-14c-2.4-1.4-5-2-5-4.7c0-1.7,1.6-3.3,4.7-3.3h41.1c17.4,0,28.3-1.1,32-1.1c3.9,0,5.5,2,5.6,5   c0.2,2.5,0.2,7.7,0.2,10.8c0,3,0.5,8.6,0.5,11.8c0,3.6-2.2,5-5,5c-3.6,0-4.6-1.1-6.7-6.1c-1.3-2.7-2.8-8.5-8.6-11.8   c-4.9-2.8-12.4-3.3-22.6-3.3h-6.9c-3.1,0-3.8,1.3-3.8,3.8v29.7c0,3.9,3,4.1,6.9,4.1h0.9c3.6,0,7.8-0.2,11.8-0.5   c6.9-0.5,11.8-0.9,14.9-0.9c3,0,5.2,0.6,5.2,3.5c0,0.9-0.2,2-0.3,3.1c-0.3,2.2,0,4.1-2,5.6c-1.1,0.8-3.3,1.1-6.3,1.1   c-6.7,0-11.3-0.8-20.7-0.8c-2.7,0-5.8,0-8.2,0.2c-1.4,0.2-2.2,0.9-2.2,2.2v25.3c0,7.8,0.2,11.9,3,13.7c1.6,0.9,5.2,1.3,8.9,1.3   c5,0,10.2-0.5,13.2-1.1c10.7-2.2,14.8-6.7,20.9-16.2c2.3-3.6,4.2-5.2,6.7-5.2c0.8,0,1.7,0.2,2.5,0.5   C368.7,154.9,369.6,156.3,369.6,158.6"/>
	<path class="st0" d="M451.9,158.5c2.7-4.2,4.1-5.6,6.7-5.6c4.6,0,5.7,3.1,5.7,8.8v1.1c-0.3,10.2-2.2,14.9-6.9,18.4   c-5.8,4.2-18,7.2-30.6,7.2c-37.8,0-58.2-28.6-58.2-57.3c0-29.2,21-58.4,60.7-58.4c11.1,0,21.2,2.4,26.5,5.7   c6.6,4.1,6.6,7.7,6.6,15.2v1.6c0,7.8-1.1,10.7-5.3,10.7c-3.6,0-4.7-1.6-6.6-4.7c-2-3.3-4.6-8.5-10.5-12.9c-4.1-3-9.1-4.7-14.8-4.7   c-19.5,0-33.6,19.2-33.6,45.4c0,1.7,0,3.5,0.2,5.2c2,29.2,18.4,42.7,34.7,42.7c7.1,0,13-2.7,17.6-7.4   C447.3,165.8,449.5,162.4,451.9,158.5"/>
	<path class="st0" d="M545.1,106.1c-2.5,0-3.9-1.1-5.6-5.6c-1.7-4.2-3.6-9.1-9.1-12.2c-5.8-3.3-14.9-3.3-27.8-3.3h-1.7   c-3.1,0-3.8,1.3-3.8,3.8v33.9c0,3.1,0.9,4.4,4.1,4.4c3.9,0,10,0,15.5-0.3c7.1-0.5,11.9-1.1,15.1-1.1c1.7,0,2.8,0.2,3.8,0.8   c0.9,0.6,1.3,1.6,1.3,2.7c0,0.9-0.2,2-0.3,3.1c-0.3,2.2-0.3,4.4-2,5.7c-1.3,0.9-3.5,1.1-6.4,1.1c-6.3,0-11.5-0.8-20.6-0.8   c-2.5,0-5.6,0-8.2,0.2c-1.4,0.2-2.2,0.8-2.2,2.2v16.8c0,10.8,0.8,14,1.7,16.2c0.9,2.2,2.7,4.1,5.3,5.7c1.9,1.1,3.5,2,3.5,4.1   c0,2.4-2.4,3.5-5.5,3.5H471c-3.1,0-5.5-1.1-5.5-3.5c0-2,1.6-3,3.5-4.1c2.7-1.6,4.4-3.5,5.3-5.7s1.9-5.3,1.9-16.2V94.8   c0-6.7-0.3-9.7-4.6-12.2c-2.4-1.4-5-2-5-4.7c0-1.9,1.6-3.3,4.7-3.3h41.1c16.2,0,26.2-1.1,31.4-1.1c3.6,0,6,0.9,6.1,5l0.5,11   c0.2,3.5,0.3,7.4,0.3,11C550.7,105.1,548.5,106.1,545.1,106.1"/>
	<path class="st0" d="M684.3,183.1c0,2.4-2.2,3.5-5.3,3.5h-31.2c-3.1,0-5.3-1.1-5.3-3.5c0-2,1.6-3,3.5-4.1c2.7-1.4,4.4-3.5,5.2-5.6   c0.9-2.2,1.9-5.3,1.9-20.9V94.1c0-0.5-0.3-0.8-0.6-0.8s-0.6,0.2-0.8,0.6l-30.9,71.6c-1.1,2.5-1.7,2.8-3.6,2.8h-5.5   c-2.2,0-2.8-0.5-3.8-2.8l-30.8-71.7c-0.2-0.3-0.3-0.5-0.6-0.5c-0.5,0-0.8,0.3-0.8,0.8c0,5.6,0,48.6,0.5,64.2   c0.5,14.4,4.7,17.3,9.9,19.8c2.7,1.3,5.6,2.2,5.6,4.9c0,2.3-2.2,3.6-5.6,3.6H559c-4.1,0-6-1.3-6-3.5c0-3.1,3.6-3.6,6.1-6.7   c3.3-4.1,5-10.7,5.2-27.6c0.2-13.5,0.2-55.4,0.2-58.8c0-1.4,0-3.1-0.6-4.2s-1.7-1.9-3.6-2.7c-2.7-1.1-6-2-6-5c0-2.2,2-3.4,5.5-3.4   h26c3.8,0,5,0.8,6,3.1l26.7,60.7c0.2,0.3,0.3,0.6,0.8,0.6c0.3,0,0.6-0.2,0.8-0.5l26.4-60.7c1.1-2.4,2.7-3.3,4.9-3.3h27.3   c3.1,0,4.7,1.4,4.7,3.1c0,2.8-2.5,3.1-5.3,4.9c-4.2,2.8-4.2,6.7-4.2,16.5v58.2c0,10.8,0.9,14,1.9,16.2c0.8,2.2,2.7,4.2,5.2,5.6   C682.7,180.1,684.3,181.1,684.3,183.1"/>
	<path class="st0" d="M784.7,135.4c0,2.7-2.7,3.3-5.3,5c-4.2,2.8-4.2,6.6-4.2,16.5v14.3c0,3.3-0.8,4.7-3.1,6.6   c-7.5,5.6-19.5,10.5-33.7,10.5c-34.7-0.2-57.3-24.3-57.3-57.9c0-31.5,24.6-57.7,59.8-57.7c10.5,0,20.9,1.7,27.5,5.6   c5.3,3.3,6.4,8.3,6.4,15.7v3.5c-0.3,5.3-1.7,8.5-5.3,8.5c-3.3,0-4.6-2-6.3-4.9c-2.8-4.9-5.2-8.8-10.2-12.6c-4.4-3.3-9.3-5-15.2-5   C718,83.5,704,101,704,126c0,28.1,13.8,51,36.3,51c4.1,0,8.2-0.8,10.2-1.7c3-1.3,3.6-2.8,3.6-5.3v-13c0-10.4-0.6-14.1-7.1-16.5   c-3.1-1.1-6.3-1.7-6.3-4.9c0.2-1.9,1.7-3.1,5-3.1l34-0.2C783,132.3,784.7,133.5,784.7,135.4"/>
</g>
<g id="Icon_00000098210392394626745250000008683795512573993346_">
	<path class="st0" d="M125.4,249.5c-65.1,0-118.1-53-118.1-118.1s53-118.1,118.1-118.1s118.1,53,118.1,118.1   S190.5,249.5,125.4,249.5 M125.4,19.4c-61.8,0-112,50.3-112,112s50.3,112,112,112s112-50.3,112-112S187.1,19.4,125.4,19.4"/>
	<path class="st0" d="M137.7,204.3h-25.8c-4.3,0-7.9-3.5-7.9-7.9v-30h5.4v30c0,1.4,1.1,2.5,2.5,2.5h25.8c1.4,0,2.5-1.1,2.5-2.5   v-70.3c0-1.4-1.1-2.5-2.5-2.5h-25.8c-1.4,0-2.5,1.1-2.5,2.5v22.5H104v-22.5c0-4.3,3.5-7.9,7.9-7.9h25.8c4.3,0,7.9,3.5,7.9,7.9v70.3   C145.5,200.8,142,204.3,137.7,204.3"/>
	<path class="st0" d="M124.9,107.8c-15.3,0-24.5-9.3-24.5-24.8c0-15.4,9.1-24.6,24.5-24.6s24.5,9.2,24.5,24.6   C149.4,98.3,140,107.8,124.9,107.8 M124.9,63.9c-12.3,0-19.1,6.8-19.1,19.2c0,12.5,6.8,19.4,19.1,19.4c12.1,0,19.1-7.1,19.1-19.4   C144,70.7,137.2,63.9,124.9,63.9"/>
	<path class="st1" d="M183,159.8h-29.6v-5.4H183c0.9,0,1.7-0.8,1.7-1.7v-27.4c0-0.9-0.8-1.7-1.7-1.7h-29.6v-5.4H183   c3.9,0,7.1,3.2,7.1,7.1v27.4C190,156.6,186.9,159.8,183,159.8"/>
	<path class="st2" d="M132.2,159.8H66.6c-3.9,0-7.1-3.2-7.1-7.1v-27.4c0-3.9,3.2-7.1,7.1-7.1h29.6v5.4H66.6c-0.9,0-1.7,0.8-1.7,1.7   v27.4c0,0.9,0.8,1.7,1.7,1.7h65.6V159.8z"/>
</g>
<g class="st3">
	<path class="st0" d="M790.5,76.2c0-0.1,0-0.2,0.1-0.3c0.1-0.1,0.1-0.1,0.3-0.1h13.2c0.1,0,0.2,0,0.3,0.1c0,0.1,0.1,0.1,0.1,0.3v1.5   c0,0.2-0.1,0.3-0.3,0.3h-4.8c-0.2,0-0.3,0.1-0.3,0.2v15.1c0,0.2-0.1,0.4-0.3,0.4h-2.3c-0.2,0-0.3-0.1-0.3-0.3v-15   c0-0.2-0.1-0.3-0.3-0.3h-5c-0.2,0-0.3-0.1-0.3-0.3V76.2z"/>
	<path class="st0" d="M807.5,93.3v-17c0-0.2,0.1-0.4,0.3-0.4h3.1c0.1,0,0.2,0,0.3,0.1c0.1,0,0.1,0.1,0.1,0.2l4.8,12.6   c0.1,0.1,0.1,0.2,0.2,0.2c0.1,0,0.1-0.1,0.2-0.2l4.7-12.5c0.1-0.3,0.2-0.4,0.4-0.4h3.3c0.2,0,0.3,0.1,0.3,0.4v17   c0,0.3-0.1,0.4-0.4,0.4h-2.1c-0.1,0-0.2,0-0.3-0.1c-0.1-0.1-0.1-0.2-0.1-0.3V80.1c0-0.1,0-0.1-0.1-0.1c0,0-0.1,0.1-0.1,0.1   l-4.9,13.2c-0.1,0.2-0.2,0.3-0.5,0.3h-1.4c-0.3,0-0.4-0.1-0.5-0.3L810,80.3c0-0.1-0.1-0.1-0.1-0.1c0,0,0,0,0,0.1v13   c0,0.1,0,0.2-0.1,0.3c0,0.1-0.1,0.1-0.3,0.1h-1.7C807.6,93.7,807.5,93.5,807.5,93.3z"/>
</g>
<g id="Tagline">
	<path class="st0" d="M476.9,233.4h-3.2l-2.5-7.4h-9.4l-2.3,7.4h-2.7l8.2-25.3h3.6L476.9,233.4z M470.5,223.7l-3.9-12.2l-3.9,12.2   H470.5z"/>
	<path class="st0" d="M489.3,233.4v-25.3h8.5c3.6,0,6.4,1.2,8.3,3.7c2,2.4,3,5.4,3,8.9c0,3.6-1,6.6-2.9,9c-1.9,2.5-4.4,3.7-7.4,3.7   L489.3,233.4L489.3,233.4z M492.5,230.7h5.1c2.7,0,4.8-0.9,6.2-2.8c1.4-1.9,2.1-4.4,2.1-7.4c0-2.5-0.7-4.7-2-6.7s-3.4-3-6.3-3h-5.1   L492.5,230.7L492.5,230.7z"/>
	<path class="st0" d="M516.5,208.1v3.2h-3.1v-3.2H516.5z M516.4,214.7v18.7h-2.9v-18.7H516.4z"/>
	<path class="st0" d="M535.7,214.7l-6.5,18.7h-3l-6.7-18.7h3.2l5.2,15.2l5.2-15.2H535.7z"/>
	<path class="st0" d="M541.9,208.1v3.2h-3.1v-3.2H541.9z M541.8,214.7v18.7h-2.9v-18.7H541.8z"/>
	<path class="st0" d="M544.9,228.6l2.8-0.6c0.6,2.4,2.6,3.5,5.9,3.5c1.2,0,2.2-0.3,3.1-0.8c0.8-0.5,1.3-1.3,1.3-2.3   c0-1.5-1.1-2.4-3.2-2.8l-4-0.7c-1.5-0.3-2.8-0.9-3.7-1.7c-0.9-0.9-1.4-2-1.4-3.4c0-1.6,0.6-2.9,1.9-3.9c1.2-1.1,2.9-1.6,5-1.6   c4.1,0,6.6,1.6,7.5,4.8l-2.7,0.6c-0.8-2-2.3-2.9-4.7-2.9c-1.2,0-2.2,0.2-2.9,0.7c-0.8,0.5-1.1,1.2-1.1,2c0,1.4,1,2.3,2.9,2.6   l3.7,0.7c3.8,0.7,5.7,2.5,5.7,5.6c0,1.7-0.7,3.1-2.1,4.2c-1.4,1.1-3.3,1.6-5.7,1.6C548.7,234,546,232.2,544.9,228.6z"/>
	<path class="st0" d="M567.9,208.1v3.2h-3.1v-3.2H567.9z M567.8,214.7v18.7h-2.9v-18.7H567.8z"/>
	<path class="st0" d="M580.1,234c-2.6,0-4.6-1-6-2.9s-2.2-4.3-2.2-7.1c0-3,0.8-5.4,2.4-7.2c1.6-1.8,3.6-2.7,6-2.7   c2.6,0,4.6,0.9,6.1,2.8c1.5,1.9,2.2,4.2,2.2,7c0,2.9-0.8,5.3-2.4,7.2C584.8,233,582.7,234,580.1,234z M580.4,231.5   c1.5,0,2.7-0.6,3.7-1.8s1.5-3.1,1.5-5.7c0-2.6-0.5-4.5-1.6-5.6c-1.1-1.2-2.3-1.8-3.7-1.8s-2.7,0.6-3.7,1.8s-1.5,3.1-1.5,5.6   c0,2.7,0.5,4.6,1.5,5.8S578.9,231.5,580.4,231.5z"/>
	<path class="st0" d="M607.8,233.4H605v-12c0-1.7-0.4-3-1.1-3.7c-0.8-0.7-1.7-1.1-2.7-1.1c-1.5,0-2.7,0.6-3.7,1.8s-1.5,2.8-1.5,4.7   v10.3h-3v-18.7h2.7v3.5c1.5-2.6,3.5-4,5.9-4c1.4,0,2.6,0.4,3.6,1.1c1,0.7,1.7,1.5,2,2.4c0.4,0.9,0.5,2.5,0.5,4.9L607.8,233.4   L607.8,233.4z"/>
	<path class="st0" d="M629.4,234c-2.6,0-4.6-1-6-2.9s-2.2-4.3-2.2-7.1c0-3,0.8-5.4,2.4-7.2c1.6-1.8,3.6-2.7,6-2.7   c2.6,0,4.6,0.9,6.1,2.8c1.5,1.9,2.2,4.2,2.2,7c0,2.9-0.8,5.3-2.4,7.2C634,233,632,234,629.4,234z M629.6,231.5   c1.5,0,2.7-0.6,3.7-1.8s1.5-3.1,1.5-5.7c0-2.6-0.5-4.5-1.6-5.6c-1.1-1.2-2.3-1.8-3.7-1.8s-2.7,0.6-3.7,1.8s-1.5,3.1-1.5,5.6   c0,2.7,0.5,4.6,1.5,5.8S628.2,231.5,629.6,231.5z"/>
	<path class="st0" d="M650,214.7v2.3h-4.5v16.5h-2.9V217h-3.2v-2.3h3.2c0-3,0.6-4.9,1.7-5.8c1.1-0.9,2.5-1.3,4.1-1.3   c0.8,0,1.7,0.1,2.7,0.3v2.3c-0.6-0.2-1.2-0.2-1.8-0.2c-1.3,0-2.2,0.3-2.8,0.8c-0.6,0.6-0.9,1.6-0.9,3.2v0.8h4.4V214.7z"/>
	<path class="st0" d="M666.2,233.4H663v-25.3h3.2V233.4z"/>
	<path class="st0" d="M686.8,233.4h-2.7v-12c0-1.7-0.4-3-1.1-3.7c-0.8-0.7-1.7-1.1-2.7-1.1c-1.5,0-2.7,0.6-3.7,1.8s-1.5,2.8-1.5,4.7   v10.3h-2.9v-18.7h2.7v3.5c1.5-2.6,3.5-4,5.9-4c1.4,0,2.6,0.4,3.6,1.1c1,0.7,1.7,1.5,2,2.4c0.4,0.9,0.5,2.5,0.5,4.9L686.8,233.4   L686.8,233.4z"/>
	<path class="st0" d="M701,231.5v2.3c-1,0.1-1.9,0.2-2.7,0.2c-3.6,0-5.4-1.9-5.4-5.7V217h-3.3v-2.3h3.3l0.1-4.7l2.7-0.3v5h4.2v2.3   h-4.2v11.8c0,1.9,1,2.9,3,2.9C699.4,231.7,700.1,231.6,701,231.5z"/>
	<path class="st0" d="M715.7,227.9l2.7,0.6c-0.5,1.6-1.5,2.9-2.9,4c-1.4,1-3.1,1.6-5.1,1.6c-2.6,0-4.6-0.9-6.2-2.7   c-1.6-1.8-2.4-4.2-2.4-7.1c0-3,0.8-5.4,2.5-7.2c1.6-1.8,3.7-2.8,6.2-2.8c2.4,0,4.4,0.8,5.9,2.5s2.3,4.2,2.3,7.6h-13.6   c0,2.8,0.6,4.7,1.8,5.7s2.4,1.5,3.8,1.5C713,231.5,714.7,230.3,715.7,227.9z M715.5,222.2c0-1.1-0.2-2-0.5-2.8s-0.9-1.5-1.6-2.1   c-0.8-0.6-1.7-0.9-2.8-0.9c-1.4,0-2.7,0.5-3.7,1.6c-1,1-1.6,2.4-1.7,4.2H715.5z"/>
	<path class="st0" d="M737.6,233.4h-2.9c-0.1-0.6-0.2-1.7-0.3-3.4c-1.3,2.6-3.5,3.9-6.6,3.9c-2.1,0-3.7-0.6-4.8-1.7   c-1.1-1.1-1.7-2.5-1.7-4c0-1.9,0.8-3.5,2.4-4.7c1.6-1.2,4.3-1.8,8.2-1.8c0.5,0,1.3,0,2.5,0.1c0-1.5-0.1-2.6-0.3-3.2   c-0.2-0.7-0.7-1.2-1.5-1.6c-0.7-0.4-1.7-0.6-2.9-0.6c-3,0-4.7,1.1-5.2,3.4l-2.7-0.5c0.7-3.5,3.4-5.2,8.3-5.2c2.6,0,4.4,0.6,5.5,1.7   c1.1,1.1,1.6,3.1,1.6,5.9v8C737.2,231.1,737.3,232.3,737.6,233.4z M734.4,224.1c-1.2-0.1-2.1-0.1-2.7-0.1c-2.3,0-4.1,0.4-5.4,1.1   c-1.3,0.8-1.9,1.9-1.9,3.3c0,0.9,0.3,1.7,1,2.3s1.7,1,3,1c1.8,0,3.2-0.6,4.3-1.9c1.1-1.3,1.7-2.8,1.7-4.5   C734.4,225,734.4,224.5,734.4,224.1z"/>
	<path class="st0" d="M745.7,233.4h-2.9v-25.3h2.9V233.4z"/>
	<path class="st0" d="M759.9,231.5v2.3c-1,0.1-1.9,0.2-2.7,0.2c-3.6,0-5.4-1.9-5.4-5.7V217h-3.3v-2.3h3.3l0.1-4.7l2.7-0.3v5h4.2v2.3   h-4.2v11.8c0,1.9,1,2.9,3,2.9C758.3,231.7,759,231.6,759.9,231.5z"/>
	<path class="st0" d="M777.6,233.4h-2.9V222c0-1.3-0.1-2.3-0.2-3c-0.2-0.7-0.6-1.2-1.2-1.7c-0.6-0.5-1.3-0.7-2.2-0.7   c-1.5,0-2.7,0.6-3.8,1.8c-1,1.2-1.5,2.9-1.5,4.9v10.1h-2.9v-25.3h2.9v10c1.3-2.6,3.2-4,5.7-4c1.1,0,2.1,0.2,2.9,0.6   c0.9,0.4,1.5,1,2,1.7s0.8,1.4,0.9,2.1c0.2,0.7,0.3,1.8,0.3,3.4V233.4z"/>
</g>
</svg>