<svg xmlns="http://www.w3.org/2000/svg" xmlns:xlink="http://www.w3.org/1999/xlink" id="_Слой_1" data-name="Слой 1" viewBox="162.9 132.58 302.65 141.2">
  <defs>
    <style>
      .cls-1 {
        clip-path: url(#clippath-6);
      }

      .cls-2 {
        clip-path: url(#clippath-4);
      }

      .cls-3 {
        fill: url(#_Безымянный_градиент_4);
      }

      .cls-4 {
        opacity: .15;
      }

      .cls-5, .cls-6 {
        fill: none;
      }

      .cls-7 {
        clip-path: url(#clippath-1);
      }

      .cls-8 {
        clip-path: url(#clippath-5);
      }

      .cls-9 {
        clip-path: url(#clippath-3);
      }

      .cls-6 {
        clip-rule: evenodd;
      }

      .cls-10 {
        fill: url(#_Безымянный_градиент_2);
      }

      .cls-11 {
        opacity: .3;
      }

      .cls-12 {
        fill: #1d1d1b;
      }

      .cls-13 {
        fill: url(#_Безымянный_градиент);
      }

      .cls-14 {
        clip-path: url(#clippath-2);
      }

      .cls-15 {
        fill: url(#_Безымянный_градиент_3);
      }

      .cls-16 {
        clip-path: url(#clippath);
      }
    </style>
    <clipPath id="clippath">
      <rect class="cls-5" width="595.28" height="417.48"/>
    </clipPath>
    <clipPath id="clippath-1">
      <path class="cls-6" d="M278.98,162.92c.05,0,.12-.01.21-.02-.07,0-.13.01-.21.02M279.49,162.85c-.12.02-.22.04-.3.05,131.89-14.27,126.07,16.25,126.07,16.25l17.83-13.75v-.02s42.47-32.79,42.47-32.79l-186.07,30.27Z"/>
    </clipPath>
    <linearGradient id="_Безымянный_градиент" data-name="Безымянный градиент" x1="281.39" y1="144.2" x2="461.11" y2="167.26" gradientUnits="userSpaceOnUse">
      <stop offset="0" stop-color="#662483"/>
      <stop offset=".29" stop-color="#662483"/>
      <stop offset=".55" stop-color="#662483"/>
      <stop offset=".76" stop-color="#951b81"/>
      <stop offset="1" stop-color="#f9cf33"/>
    </linearGradient>
    <clipPath id="clippath-2">
      <rect class="cls-5" x="278.98" y="148.41" width="151.54" height="30.73"/>
    </clipPath>
    <clipPath id="clippath-3">
      <rect class="cls-5" x="278.98" y="154.34" width="144.25" height="24.8"/>
    </clipPath>
    <clipPath id="clippath-4">
      <path class="cls-6" d="M196.11,204.54c11.74,0,21.27,9.52,21.27,21.27s-9.52,21.27-21.27,21.27-21.27-9.52-21.27-21.27,9.52-21.27,21.27-21.27M196.66,162.61c7.83,0,14.17,6.34,14.17,14.17s-6.34,14.17-14.17,14.17-14.17-6.34-14.17-14.17,6.34-14.17,14.17-14.17ZM211.74,196.49c10.46,5.59,17.59,16.62,17.59,29.31,0,18.34-14.87,33.22-33.22,33.22s-33.22-14.87-33.22-33.22c0-12.96,7.42-24.18,18.24-29.66-5.67-4.55-9.31-11.54-9.31-19.38,0-13.71,11.12-24.83,24.83-24.83s24.83,11.12,24.83,24.83c0,8.04-3.82,15.18-9.74,19.72Z"/>
    </clipPath>
    <linearGradient id="_Безымянный_градиент_2" data-name="Безымянный градиент 2" x1="153.86" y1="174.57" x2="226.34" y2="227.61" gradientUnits="userSpaceOnUse">
      <stop offset="0" stop-color="#662483"/>
      <stop offset=".48" stop-color="#951b81"/>
      <stop offset="1" stop-color="#f9cf33"/>
    </linearGradient>
    <clipPath id="clippath-5">
      <path class="cls-6" d="M256.07,169.45c15.21,0,28.9,6.51,38.43,16.89h-16.56c-6.35-3.95-13.84-6.23-21.87-6.23-22.92,0-41.49,18.58-41.49,41.49s18.58,41.49,41.49,41.49c8.03,0,15.52-2.28,21.87-6.23h16.56c-9.53,10.38-23.22,16.89-38.43,16.89-28.81,0-52.16-23.35-52.16-52.16s23.35-52.16,52.16-52.16"/>
    </clipPath>
    <linearGradient id="_Безымянный_градиент_3" data-name="Безымянный градиент 3" x1="197.05" y1="194.34" x2="295.89" y2="246.02" gradientUnits="userSpaceOnUse">
      <stop offset="0" stop-color="#662483"/>
      <stop offset=".48" stop-color="#951b81"/>
      <stop offset="1" stop-color="#f9cf33"/>
    </linearGradient>
    <clipPath id="clippath-6">
      <path class="cls-6" d="M196.66,162.61c7.83,0,14.17,6.34,14.17,14.17s-6.34,14.17-14.17,14.17-14.17-6.34-14.17-14.17,6.34-14.17,14.17-14.17M211.74,196.49c10.46,5.59,17.59,16.62,17.59,29.31,0,2.42-.26,4.78-.75,7.05h-12.4c.78-2.21,1.2-4.58,1.2-7.05,0-11.74-9.52-21.27-21.27-21.27s-21.27,9.52-21.27,21.27c0,9.79,6.61,18.03,15.61,20.51v12.23c-15.65-2.68-27.56-16.32-27.56-32.74,0-12.96,7.42-24.18,18.24-29.66-5.67-4.55-9.31-11.54-9.31-19.38,0-13.71,11.12-24.83,24.83-24.83s24.83,11.12,24.83,24.83c0,8.04-3.82,15.18-9.74,19.72Z"/>
    </clipPath>
    <linearGradient id="_Безымянный_градиент_4" data-name="Безымянный градиент 4" x1="153.98" y1="174.41" x2="226.46" y2="227.45" gradientUnits="userSpaceOnUse">
      <stop offset="0" stop-color="#662483"/>
      <stop offset=".48" stop-color="#951b81"/>
      <stop offset="1" stop-color="#f9cf33"/>
    </linearGradient>
  </defs>
  <g class="cls-16">
    <g class="cls-7">
      <rect class="cls-13" x="278.98" y="132.58" width="186.57" height="46.56"/>
    </g>
    <g class="cls-4">
      <g class="cls-14">
        <path class="cls-12" d="M423.09,165.37v.02s-17.83,13.75-17.83,13.75c0,0,5.84-30.55-126.28-16.22.1,0,.25-.03.51-.07,10.03-1.36,189.27-33.36,143.6,2.52"/>
      </g>
    </g>
    <g class="cls-11">
      <g class="cls-9">
        <path class="cls-12" d="M423.09,165.37v.02s-17.83,13.75-17.83,13.75c0,0,5.84-30.55-126.28-16.22.1,0,.25-.03.51-.07,10.03-1.36,148.86-19.94,143.6,2.52"/>
      </g>
    </g>
    <g class="cls-2">
      <rect class="cls-10" x="162.9" y="151.95" width="66.43" height="107.08"/>
    </g>
    <g class="cls-8">
      <rect class="cls-15" x="203.91" y="169.45" width="90.59" height="104.33"/>
    </g>
    <g class="cls-1">
      <rect class="cls-3" x="162.9" y="151.95" width="66.43" height="106.59"/>
    </g>
  </g>
  <g>
    <path d="M248.38,203.32h-2.73l-6.13-6.78h-2.78v6.78h-2.28v-14.92h2.28v6.61h2.76l5.76-6.61h2.63l-6.6,7.25,7.1,7.68Z"/>
    <path d="M262.71,203.32l-1.54-3.92h-7.9l-1.56,3.92h-2.28l6.08-14.92h3.48l6.08,14.92h-2.36ZM253.87,197.9h6.68l-3.33-8.44-3.35,8.44Z"/>
    <path d="M281.28,203.32h-2.76l-5.09-6.14h-3.53v6.14h-2.28v-14.92h7.1c1.69,0,3.09.37,4.2,1.1,1.11.73,1.66,1.84,1.66,3.34,0,1.32-.43,2.34-1.3,3.05-.87.71-2.02,1.13-3.44,1.26l5.44,6.18ZM269.91,195.69h4.57c1.18,0,2.11-.24,2.79-.73.69-.48,1.03-1.19,1.03-2.13s-.34-1.65-1.03-2.13c-.69-.48-1.62-.73-2.79-.73h-4.57v5.71Z"/>
    <path d="M282.52,198.74l2.14-.06c.05,1.07.46,1.89,1.24,2.47.78.58,1.92.87,3.43.87,1.19,0,2.18-.2,2.95-.6s1.17-1.02,1.17-1.88c0-.6-.23-1.09-.7-1.47-.46-.38-1.24-.73-2.33-1.04l-3.58-.98c-2.48-.68-3.72-1.98-3.72-3.9,0-1.34.55-2.34,1.64-3.01,1.09-.67,2.47-1,4.15-1,1.8,0,3.28.38,4.42,1.15s1.77,1.83,1.89,3.2l-2.11.13c-.07-.88-.46-1.59-1.19-2.12-.73-.53-1.74-.8-3.03-.8-1.09,0-1.95.2-2.56.61-.61.4-.92.98-.92,1.72,0,1.15.91,1.97,2.73,2.45l3.58.98c1.36.37,2.37.87,3.03,1.49.66.63.99,1.45.99,2.47,0,1.38-.57,2.42-1.71,3.11-1.14.7-2.71,1.04-4.72,1.04-2.14,0-3.78-.42-4.93-1.25s-1.77-2.03-1.85-3.59Z"/>
    <path d="M310.06,188.39h2.28v14.92h-2.28v-6.78h-8.96v6.78h-2.28v-14.92h2.28v6.52h8.96v-6.52Z"/>
    <path d="M316.51,203.32v-14.92h2.28v14.92h-2.28Z"/>
    <path d="M233.19,224.32l2.14-.06c.05,1.07.46,1.89,1.24,2.47.78.58,1.92.87,3.43.87,1.19,0,2.18-.2,2.95-.6.78-.4,1.17-1.02,1.17-1.88,0-.6-.23-1.09-.7-1.47-.46-.38-1.24-.73-2.33-1.04l-3.58-.98c-2.48-.68-3.72-1.98-3.72-3.9,0-1.34.55-2.34,1.64-3.01,1.09-.67,2.47-1,4.15-1,1.8,0,3.28.38,4.42,1.15s1.77,1.83,1.89,3.2l-2.11.13c-.07-.88-.46-1.59-1.19-2.12-.73-.53-1.74-.8-3.03-.8-1.09,0-1.95.2-2.56.61-.61.4-.92.98-.92,1.72,0,1.15.91,1.97,2.73,2.45l3.58.98c1.36.37,2.37.87,3.03,1.49.66.63.99,1.45.99,2.47,0,1.38-.57,2.42-1.71,3.11-1.14.7-2.71,1.04-4.72,1.04-2.14,0-3.78-.42-4.93-1.25-1.15-.83-1.77-2.03-1.85-3.59Z"/>
    <path d="M247.41,215.58v-1.6h13.16v1.6h-5.44v13.33h-2.28v-13.33h-5.44Z"/>
    <path d="M272.79,228.9l-1.54-3.92h-7.9l-1.56,3.92h-2.28l6.08-14.92h3.48l6.08,14.92h-2.36ZM263.95,223.49h6.68l-3.33-8.44-3.35,8.44Z"/>
    <path d="M274.08,215.58v-1.6h13.16v1.6h-5.44v13.33h-2.28v-13.33h-5.44Z"/>
    <path d="M289.95,228.9v-14.92h11.62v1.56h-9.33v5.03h7.4v1.49h-7.4v5.29h9.68v1.56h-11.97Z"/>
    <path d="M234.45,248.88v-9.32h2.28v9.15c0,1.51.38,2.62,1.13,3.35.75.72,1.89,1.09,3.41,1.09s2.66-.36,3.4-1.08c.74-.72,1.12-1.84,1.12-3.36v-9.15h2.28v9.32c0,1.98-.56,3.45-1.68,4.41-1.12.97-2.83,1.45-5.13,1.45-4.55,0-6.83-1.95-6.83-5.86Z"/>
    <path d="M263.85,239.56h2.21v14.92h-3.85l-7.75-13.75v13.75h-2.21v-14.92h3.85l7.75,13.75v-13.75Z"/>
    <path d="M270.23,254.49v-14.92h2.28v14.92h-2.28Z"/>
    <path d="M287.71,239.56h2.38l-5.78,14.92h-3.4l-5.76-14.92h2.43l5.04,13.69,5.09-13.69Z"/>
    <path d="M292.7,254.49v-14.92h11.62v1.56h-9.33v5.03h7.4v1.49h-7.4v5.29h9.68v1.56h-11.97Z"/>
    <path d="M321.48,254.49h-2.76l-5.09-6.14h-3.53v6.14h-2.28v-14.92h7.1c1.69,0,3.09.37,4.2,1.1,1.11.73,1.66,1.84,1.66,3.34,0,1.32-.43,2.34-1.3,3.05-.87.71-2.02,1.13-3.44,1.26l5.44,6.18ZM310.1,246.86h4.57c1.18,0,2.11-.24,2.79-.73.69-.48,1.03-1.19,1.03-2.13s-.34-1.65-1.03-2.13c-.69-.48-1.62-.72-2.79-.72h-4.57v5.71Z"/>
    <path d="M322.72,249.9l2.13-.06c.05,1.07.46,1.89,1.24,2.47.78.58,1.92.87,3.43.87,1.19,0,2.18-.2,2.95-.6.78-.4,1.17-1.02,1.17-1.88,0-.6-.23-1.09-.7-1.47-.46-.38-1.24-.73-2.33-1.04l-3.58-.98c-2.48-.68-3.72-1.98-3.72-3.9,0-1.34.55-2.34,1.64-3.01,1.09-.67,2.47-1,4.15-1,1.8,0,3.28.38,4.42,1.15,1.14.77,1.77,1.83,1.89,3.2l-2.11.13c-.07-.88-.46-1.59-1.19-2.12-.73-.53-1.74-.8-3.03-.8-1.09,0-1.95.2-2.56.61-.61.41-.92.98-.92,1.72,0,1.15.91,1.97,2.73,2.45l3.58.98c1.36.37,2.37.87,3.03,1.49.66.63.99,1.45.99,2.47,0,1.38-.57,2.42-1.71,3.11-1.14.7-2.71,1.04-4.72,1.04-2.14,0-3.78-.42-4.93-1.25-1.15-.83-1.77-2.03-1.85-3.59Z"/>
    <path d="M339,254.49v-14.92h2.28v14.92h-2.28Z"/>
    <path d="M344.02,241.16v-1.6h13.16v1.6h-5.44v13.33h-2.28v-13.33h-5.44Z"/>
    <path d="M371.11,239.56h2.53l-6.58,8.76v6.16h-2.28v-6.14l-6.55-8.78h2.61l5.09,7.21,5.19-7.21Z"/>
  </g>
</svg>