<?xml version="1.0" encoding="UTF-8" standalone="no"?>
<!-- Created with Inkscape (http://www.inkscape.org/) -->

<svg
   xmlns:dc="http://purl.org/dc/elements/1.1/"
   xmlns:cc="http://creativecommons.org/ns#"
   xmlns:rdf="http://www.w3.org/1999/02/22-rdf-syntax-ns#"
   xmlns:svg="http://www.w3.org/2000/svg"
   xmlns="http://www.w3.org/2000/svg"
   xmlns:sodipodi="http://sodipodi.sourceforge.net/DTD/sodipodi-0.dtd"
   xmlns:inkscape="http://www.inkscape.org/namespaces/inkscape"
   width="174.87267"
   height="26.764811"
   viewBox="0 0 46.268394 7.0815226"
   version="1.1"
   id="svg7014"
   inkscape:version="0.92.0 r15299"
   sodipodi:docname="nmc health.svg">
  <defs
     id="defs7008" />
  <sodipodi:namedview
     id="base"
     pagecolor="#ffffff"
     bordercolor="#666666"
     borderopacity="1.0"
     inkscape:pageopacity="0.0"
     inkscape:pageshadow="2"
     inkscape:zoom="5.1589478"
     inkscape:cx="86.936332"
     inkscape:cy="12.882413"
     inkscape:document-units="mm"
     inkscape:current-layer="layer1"
     showgrid="false"
     fit-margin-top="0"
     fit-margin-left="0"
     fit-margin-right="0"
     fit-margin-bottom="0"
     units="px"
     inkscape:window-width="1280"
     inkscape:window-height="744"
     inkscape:window-x="-4"
     inkscape:window-y="-4"
     inkscape:window-maximized="1" />
  <metadata
     id="metadata7011">
    <rdf:RDF>
      <cc:Work
         rdf:about="">
        <dc:format>image/svg+xml</dc:format>
        <dc:type
           rdf:resource="http://purl.org/dc/dcmitype/StillImage" />
        <dc:title></dc:title>
      </cc:Work>
    </rdf:RDF>
  </metadata>
  <g
     inkscape:label="Layer 1"
     inkscape:groupmode="layer"
     id="layer1"
     transform="translate(-71.492143,-185.22576)">
    <g
       id="g7104"
       transform="translate(0.13229286,-0.13228831)">
      <path
         d="m 93.338233,190.35096 c -0.211667,-0.32032 -0.502708,-0.17709 -0.594783,-0.11994 v -0.001 c -0.239184,0.16616 -0.531989,0.23248 -0.806098,0.23248 -0.397933,0 -0.800452,-0.17075 -1.058333,-0.4946 -0.220486,-0.27093 -0.315736,-0.65581 -0.315736,-0.99165 0,-0.85725 0.543631,-1.52647 1.344789,-1.52647 0.291747,0 0.585964,0.0801 0.835378,0.27869 0.09208,0.0572 0.376414,0.19826 0.586669,-0.11994 -0.0039,-0.006 -0.0067,-0.0109 -0.01094,-0.0155 -0.397581,-0.45825 -0.824089,-0.63852 -1.352197,-0.63852 -1.117247,0 -1.887714,0.75847 -1.946981,1.87183 -0.03034,0.54787 0.124178,1.08056 0.433917,1.47215 0.367242,0.43462 0.923925,0.6678 1.475317,0.6678 0.522111,0 1.050925,-0.19967 1.410052,-0.61418 z"
         style="fill:#8a959f;fill-opacity:1;fill-rule:nonzero;stroke:none;stroke-width:0.35277778"
         id="path6534"
         inkscape:connector-curvature="0" />
      <path
         d="m 80.909034,186.98263 v 0 h -0.0011 -0.0014 c -0.852312,0.002 -1.665464,0.6029 -1.665464,1.68346 v 2.25671 c 0.06103,0 0.114652,-0.006 0.163336,-0.0137 v -0.001 c 0.335491,-0.061 0.369711,-0.30198 0.372886,-0.37183 v -0.0166 -1.85455 c 0.0011,-0.68616 0.537633,-1.16452 1.130653,-1.16946 0.590197,0.005 1.126772,0.4833 1.128889,1.16946 v 1.85455 c 0,0 -0.0011,0.005 0,0.0166 0.0035,0.0699 0.03669,0.3108 0.37218,0.37183 0,0 7.06e-4,0 7.06e-4,0.001 0.04868,0.008 0.103011,0.0137 0.163336,0.0137 v -2.25671 c 0,-1.08056 -0.8128,-1.68099 -1.664053,-1.68346"
         style="fill:#8a959f;fill-opacity:1;fill-rule:nonzero;stroke:none;stroke-width:0.35277778"
         id="path6538"
         inkscape:connector-curvature="0" />
      <path
         d="m 87.693533,186.98263 v 0 h -0.0018 -7.05e-4 c -0.55245,0.002 -1.087614,0.25506 -1.397,0.72743 -0.309387,-0.47237 -0.844198,-0.72496 -1.397,-0.72743 h -0.0018 -0.0011 c -0.8509,0.002 -1.664405,0.6029 -1.664405,1.68346 v 2.25671 c 0.06068,0 0.1143,-0.006 0.163336,-0.0137 l 3.53e-4,-0.001 c 0.335491,-0.061 0.369005,-0.30198 0.371828,-0.37183 0.0011,-0.012 0,-0.0166 0,-0.0166 v -1.85455 c 0.0011,-0.68616 0.539044,-1.16452 1.129947,-1.16946 0.59055,0.005 1.126772,0.48048 1.130652,1.16558 v 0.004 1.85455 c 0,0 -0.0011,0.005 0,0.0166 0.0021,0.0614 0.02999,0.25753 0.268112,0.34431 0.237419,-0.0868 0.265641,-0.28293 0.267758,-0.34431 3.53e-4,-0.012 0,-0.0166 0,-0.0166 v -1.85455 c 0,0 3.53e-4,-0.003 3.53e-4,-0.004 0.0025,-0.6851 0.538691,-1.16064 1.129594,-1.16558 0.591608,0.005 1.128889,0.4833 1.131711,1.16946 v 1.85455 c 0,0 -0.0011,0.005 0,0.0166 7.06e-4,0.0699 0.03493,0.3108 0.370064,0.37183 0,0 7.06e-4,0 0.0014,0.001 0.04868,0.008 0.102659,0.0137 0.162278,0.0137 v -2.25671 c 0,-1.08056 -0.812094,-1.68099 -1.6637,-1.68346"
         style="fill:#8a959f;fill-opacity:1;fill-rule:nonzero;stroke:none;stroke-width:0.35277778"
         id="path6542"
         inkscape:connector-curvature="0" />
      <path
         d="m 77.593937,186.83195 h -0.396522 v -0.38312 c 0,-0.52987 -0.444147,-0.95849 -0.9906,-0.95849 -0.547511,0 -0.9906,0.42862 -0.9906,0.95849 v 0.93169 c 0.737658,0.0794 1.322916,0.64946 1.396647,1.36666 h 0.981075 c 0.548217,0 0.9906,-0.42862 0.9906,-0.95709 0,-0.52987 -0.442383,-0.95814 -0.9906,-0.95814"
         style="fill:#1c98d5;fill-opacity:1;fill-rule:nonzero;stroke:none;stroke-width:0.35277778"
         id="path6546"
         inkscape:connector-curvature="0" />
      <path
         d="m 77.593937,189.0522 h -0.981075 c -0.07373,0.71579 -0.658989,1.28693 -1.396647,1.36666 v 0.93169 c 0,0.52811 0.443089,0.95673 0.9906,0.95673 0.546453,0 0.9906,-0.42862 0.9906,-0.95673 v -0.38559 h 0.396522 c 0.548217,0 0.9906,-0.42545 0.9906,-0.95462 0,-0.52987 -0.442383,-0.95814 -0.9906,-0.95814"
         style="fill:#1c98d5;fill-opacity:1;fill-rule:nonzero;stroke:none;stroke-width:0.35277778"
         id="path6550"
         inkscape:connector-curvature="0" />
      <path
         d="m 75.347043,189.87611 c -0.562681,0 -1.018469,-0.43956 -1.018469,-0.98425 0,-0.54151 0.455788,-0.98072 1.018469,-0.98072 0.254353,0 0.486481,0.0878 0.665692,0.23989 -0.226836,-0.2787 -0.58032,-0.45967 -0.97402,-0.45967 -0.6858,0 -1.242836,0.53798 -1.242836,1.2005 0,0.66463 0.557036,1.20121 1.242836,1.20121 0.3937,0 0.747184,-0.18027 0.97402,-0.45685 -0.179211,0.14958 -0.411339,0.23989 -0.665692,0.23989"
         style="fill:#1c98d5;fill-opacity:1;fill-rule:nonzero;stroke:none;stroke-width:0.35277778"
         id="path6554"
         inkscape:connector-curvature="0" />
      <path
         d="m 72.482743,186.83195 h 0.396522 v -0.38312 c 0,-0.52987 0.443089,-0.95849 0.990247,-0.95849 0.547864,0 0.989542,0.42862 0.989542,0.95849 v 0.93169 c -0.735894,0.0794 -1.321505,0.64946 -1.395589,1.36666 h -0.980722 c -0.547511,0 -0.9906,-0.42862 -0.9906,-0.95709 0,-0.52987 0.443089,-0.95814 0.9906,-0.95814"
         style="fill:#1c98d5;fill-opacity:1;fill-rule:nonzero;stroke:none;stroke-width:0.35277778"
         id="path6558"
         inkscape:connector-curvature="0" />
      <path
         d="m 72.482743,189.0522 h 0.980722 c 0.07408,0.71579 0.659695,1.28693 1.395589,1.36666 v 0.93169 c 0,0.52811 -0.441678,0.95673 -0.989542,0.95673 -0.547158,0 -0.990247,-0.42862 -0.990247,-0.95673 v -0.38559 h -0.396522 c -0.547511,0 -0.9906,-0.42545 -0.9906,-0.95462 0,-0.52987 0.443089,-0.95814 0.9906,-0.95814"
         style="fill:#1c98d5;fill-opacity:1;fill-rule:nonzero;stroke:none;stroke-width:0.35277778"
         id="path6562"
         inkscape:connector-curvature="0" />
      <path
         d="m 98.89824,188.73171 c 0,-0.68333 -0.569031,-1.15923 -1.191683,-1.15923 -0.746478,0 -1.446036,0.50553 -1.446036,1.27071 v 1.85032 c 0,0.16333 -0.100189,0.26705 -0.276931,0.26705 -0.177094,0 -0.292453,-0.10372 -0.292453,-0.26705 v -4.45065 c 0,-0.31926 0.569384,-0.31221 0.569384,0 v 1.55999 c 0.276577,-0.52 0.876652,-0.73519 1.453091,-0.73519 0.892528,0 1.74625,0.59408 1.74625,1.66405 v 1.9618 c 0,0.16333 -0.100189,0.26705 -0.277283,0.26705 -0.169333,0 -0.284339,-0.10372 -0.284339,-0.26705 z"
         style="fill:#1c98d5;fill-opacity:1;fill-rule:nonzero;stroke:none;stroke-width:0.35277778"
         id="path6566"
         inkscape:connector-curvature="0" />
      <path
         d="m 100.80414,188.8952 h 2.89913 c -0.054,-0.63147 -0.45403,-1.11442 -1.0534,-1.26294 h 0.007 c -0.25365,-0.067 -0.56903,-0.067 -0.83079,0.007 -0.61524,0.15628 -0.97649,0.65405 -1.02235,1.25589 m 2.01471,-1.74625 c 0.8689,0.23072 1.40723,0.91405 1.42276,1.86514 v -0.007 c 0.0155,0.16369 -0.0614,0.34184 -0.37677,0.34184 h -3.03777 c 0.0998,0.60925 0.63818,1.11442 1.40723,1.11442 0.35384,0 0.7232,-0.0889 1.02306,-0.31185 0.26881,-0.23813 0.66851,0.0667 0.369,0.36371 -0.35383,0.31962 -0.86924,0.45332 -1.36878,0.44591 -0.60007,0 -1.19979,-0.2226 -1.56174,-0.6611 -0.830442,-1.05516 -0.46849,-2.76366 0.96167,-3.15066 0.36124,-0.10336 0.77682,-0.0963 1.15358,0 z"
         style="fill:#1c98d5;fill-opacity:1;fill-rule:nonzero;stroke:none;stroke-width:0.35277778"
         id="path6570"
         inkscape:connector-curvature="0" />
      <path
         d="m 108.01634,189.33356 v -0.58702 c 0,-0.73554 -0.53093,-1.11443 -1.22273,-1.14406 -0.54645,-0.007 -1.09996,0.27481 -1.31515,0.79481 -0.0691,0.15628 -0.10795,0.35666 -0.11571,0.55033 -0.0152,0.4826 0.14605,0.92816 0.56162,1.26295 0.23071,0.17074 0.50765,0.25999 0.79198,0.28222 0.70768,0 1.26154,-0.41593 1.29999,-1.15923 m -2.03835,-2.10256 c 0.254,-0.11183 0.53093,-0.14851 0.82303,-0.14111 0.4385,0.007 0.93804,0.14111 1.21532,0.57962 v -0.28258 c 0,-0.15593 0.0998,-0.26776 0.27693,-0.26776 0.16898,0 0.28434,0.11183 0.28434,0.26776 v 3.29918 c 0,0.16334 -0.11536,0.26705 -0.28434,0.26705 -0.17709,0 -0.27693,-0.10371 -0.27693,-0.26705 v -0.35701 c -0.22331,0.43109 -0.79234,0.67663 -1.24601,0.67663 -0.36901,0 -0.78458,-0.097 -1.10737,-0.31962 -0.58455,-0.38664 -0.88477,-1.01847 -0.86148,-1.74625 0.0155,-0.75036 0.44591,-1.4418 1.18427,-1.71626 z"
         style="fill:#1c98d5;fill-opacity:1;fill-rule:nonzero;stroke:none;stroke-width:0.35277778"
         id="path6574"
         inkscape:connector-curvature="0" />
      <path
         d="m 110.09115,190.69347 c 0,0.14076 -0.12312,0.25259 -0.27693,0.25259 -0.16933,0 -0.28434,-0.11183 -0.28434,-0.25259 v -4.45841 c 0,-0.14075 0.11501,-0.25258 0.28434,-0.25258 0.15381,0 0.27693,0.11183 0.27693,0.25258 z"
         style="fill:#1c98d5;fill-opacity:1;fill-rule:nonzero;stroke:none;stroke-width:0.35277778"
         id="path6578"
         inkscape:connector-curvature="0" />
      <path
         d="m 112.65165,187.13429 c 0.34607,0 0.34607,0.46814 0,0.46814 h -0.83855 v 2.00624 c 0,0.42334 0.0695,0.86889 0.59231,0.86889 0.11536,0 0.28434,-0.0367 0.36125,-0.0811 0.32314,-0.17851 0.57714,0.25964 0.23106,0.44591 -0.19226,0.10336 -0.38452,0.12559 -0.59231,0.12559 -0.92251,0 -1.14582,-0.6537 -1.14582,-1.35926 v -2.00624 h -0.50765 c -0.3616,0 -0.33866,-0.46814 0,-0.46814 h 0.50765 v -0.86184 c 0,-0.35665 0.55351,-0.34925 0.55351,0 v 0.86184 z"
         style="fill:#1c98d5;fill-opacity:1;fill-rule:nonzero;stroke:none;stroke-width:0.35277778"
         id="path6582"
         inkscape:connector-curvature="0" />
      <path
         d="m 116.93433,188.73171 c 0,-0.68333 -0.56903,-1.15923 -1.19168,-1.15923 -0.74648,0 -1.44604,0.50553 -1.44604,1.27071 v 1.85032 c 0,0.16333 -0.10019,0.26705 -0.27693,0.26705 -0.17709,0 -0.29245,-0.10372 -0.29245,-0.26705 v -4.45065 c 0,-0.31926 0.56938,-0.31221 0.56938,0 v 1.55999 c 0.27658,-0.52 0.87665,-0.73519 1.45309,-0.73519 0.89253,0 1.74625,0.59408 1.74625,1.66405 v 1.9618 c 0,0.16333 -0.10019,0.26705 -0.27693,0.26705 -0.16933,0 -0.28469,-0.10372 -0.28469,-0.26705 z"
         style="fill:#1c98d5;fill-opacity:1;fill-rule:nonzero;stroke:none;stroke-width:0.35277778"
         id="path6586"
         inkscape:connector-curvature="0" />
    </g>
  </g>
</svg>
